# xmcd
#
# Track frame offsets:
# 150
# 3157
# 17975
# 34445
# 46307
# 56920
# 71507
# 95707
# 110447
# 125445
# 137425
# 155072
#
# Disc length: 2407 seconds
#
#
# Revision: 0
# Processed by: cddbd v1.5.2PL0 Copyright (c) Steve Scherf et al.
# Submitted via: Nero 7, 11, 10, 0 
#
DISCID=a609650c
DTITLE=Brian Templeton - Live At Bluesiana Rock Cafe CD 2
DYEAR=2007
DGENRE=Blues
TTITLE0=Evil Love
TTITLE1=Unbekann
TTITLE2=Unbekann
TTITLE3=Unbekann
TTITLE4=Unbekann
TTITLE5=Unbekann
TTITLE6=Unbekann
TTITLE7=Unbekann
TTITLE8=Unbekann
TTITLE9=Unbekann
TTITLE10=Unbekann
TTITLE11=Unbekann
EXTD=
EXTT0=Evil Love
EXTT1=Unbekann
EXTT2=Unbekann
EXTT3=Unbekann
EXTT4=Unbekann
EXTT5=Unbekann
EXTT6=Unbekann
EXTT7=Unbekann
EXTT8=Unbekann
EXTT9=Unbekann
EXTT10=Unbekann
EXTT11=Unbekann
PLAYORDER=
